{
	"asset":{
		"generator":"Khronos glTF Blender I/O v4.5.10",
		"version":"2.0"
	},
	"scene":0,
	"scenes":[
		{
			"name":"Scene",
			"nodes":[
				0,
				1,
				18,
				19
			]
		}
	],
	"nodes":[
		{
			"mesh":0,
			"name":"Floor",
			"scale":[
				15.530560493469238,
				1,
				17.078781127929688
			],
			"translation":[
				0.13683710992336273,
				0,
				0
			]
		},
		{
			"mesh":1,
			"name":"Main Label - TankPit-01",
			"scale":[
				5.319822311401367,
				1.581123948097229,
				6.265623092651367
			],
			"translation":[
				-13.565446853637695,
				0.4175748825073242,
				17.01125717163086
			]
		},
		{
			"mesh":2,
			"name":"Object_10"
		},
		{
			"mesh":3,
			"name":"Object_11"
		},
		{
			"mesh":4,
			"name":"Object_12"
		},
		{
			"mesh":5,
			"name":"Object_13"
		},
		{
			"mesh":6,
			"name":"Object_14"
		},
		{
			"mesh":7,
			"name":"Object_15"
		},
		{
			"mesh":8,
			"name":"Object_16"
		},
		{
			"name":"Object_2"
		},
		{
			"mesh":9,
			"name":"Object_3"
		},
		{
			"mesh":10,
			"name":"Object_4"
		},
		{
			"mesh":11,
			"name":"Object_5"
		},
		{
			"mesh":12,
			"name":"Object_6"
		},
		{
			"mesh":13,
			"name":"Object_7"
		},
		{
			"mesh":14,
			"name":"Object_8"
		},
		{
			"mesh":15,
			"name":"Object_9"
		},
		{
			"children":[
				2,
				3,
				4,
				5,
				6,
				7,
				8,
				9,
				10,
				11,
				12,
				13,
				14,
				15,
				16
			],
			"name":"Tank.obj.cleaner.materialmerger.gles"
		},
		{
			"children":[
				17
			],
			"name":"T0205",
			"rotation":[
				-0.70710688829422,
				0,
				0,
				0.7071066498756409
			],
			"scale":[
				0.4054861068725586,
				0.4068477749824524,
				0.4191116392612457
			],
			"translation":[
				-10.116195678710938,
				0.0880131721496582,
				-11.84223461151123
			]
		},
		{
			"mesh":16,
			"name":"T0205 - Label",
			"rotation":[
				0.7071068286895752,
				0,
				0,
				0.7071068286895752
			],
			"translation":[
				-12.264776229858398,
				0.4641181230545044,
				-8.474092483520508
			]
		}
	],
	"materials":[
		{
			"doubleSided":true,
			"name":"Material.004",
			"pbrMetallicRoughness":{
				"baseColorTexture":{
					"index":0
				},
				"metallicFactor":0,
				"roughnessFactor":0.5
			}
		},
		{
			"doubleSided":true,
			"name":"Material.001"
		},
		{
			"doubleSided":true,
			"name":"null",
			"pbrMetallicRoughness":{
				"metallicFactor":0,
				"roughnessFactor":0.6000000238418579
			}
		},
		{
			"doubleSided":true,
			"name":"None",
			"pbrMetallicRoughness":{
				"baseColorFactor":[
					0.800000011920929,
					0.800000011920929,
					0.800000011920929,
					1
				],
				"metallicFactor":0
			}
		},
		{
			"doubleSided":true,
			"name":"Floor",
			"pbrMetallicRoughness":{
				"baseColorTexture":{
					"index":1
				},
				"metallicFactor":0,
				"metallicRoughnessTexture":{
					"index":2
				}
			}
		},
		{
			"doubleSided":true,
			"name":"Roof",
			"pbrMetallicRoughness":{
				"baseColorTexture":{
					"index":3
				},
				"metallicFactor":0.15321969985961914,
				"metallicRoughnessTexture":{
					"index":4
				}
			}
		},
		{
			"doubleSided":true,
			"name":"TankWall",
			"pbrMetallicRoughness":{
				"baseColorTexture":{
					"index":5
				},
				"metallicFactor":0.1410984843969345,
				"metallicRoughnessTexture":{
					"index":6
				},
				"roughnessFactor":0.4467802941799164
			}
		}
	],
	"meshes":[
		{
			"name":"Plane",
			"primitives":[
				{
					"attributes":{
						"POSITION":0,
						"NORMAL":1,
						"TEXCOORD_0":2
					},
					"indices":3,
					"material":0
				}
			]
		},
		{
			"name":"Tank Pit 01",
			"primitives":[
				{
					"attributes":{
						"POSITION":4,
						"NORMAL":5,
						"TEXCOORD_0":6
					},
					"indices":7,
					"material":1
				}
			]
		},
		{
			"name":"Object_8",
			"primitives":[
				{
					"attributes":{
						"POSITION":8,
						"NORMAL":9,
						"TEXCOORD_0":10
					},
					"indices":11,
					"material":2
				}
			]
		},
		{
			"name":"Object_9",
			"primitives":[
				{
					"attributes":{
						"POSITION":12,
						"NORMAL":13,
						"TEXCOORD_0":14
					},
					"indices":15,
					"material":2
				}
			]
		},
		{
			"name":"Object_10",
			"primitives":[
				{
					"attributes":{
						"POSITION":16,
						"NORMAL":17,
						"TEXCOORD_0":18
					},
					"indices":19,
					"material":2
				}
			]
		},
		{
			"name":"Object_11",
			"primitives":[
				{
					"attributes":{
						"POSITION":20,
						"NORMAL":21,
						"TEXCOORD_0":22
					},
					"indices":23,
					"material":2
				}
			]
		},
		{
			"name":"Object_12",
			"primitives":[
				{
					"attributes":{
						"POSITION":24,
						"NORMAL":25,
						"TEXCOORD_0":26
					},
					"indices":27,
					"material":2
				}
			]
		},
		{
			"name":"Object_13",
			"primitives":[
				{
					"attributes":{
						"POSITION":28,
						"NORMAL":29
					},
					"indices":30,
					"material":3
				}
			]
		},
		{
			"name":"Object_14",
			"primitives":[
				{
					"attributes":{
						"POSITION":31,
						"NORMAL":32
					},
					"indices":33,
					"material":3
				}
			]
		},
		{
			"name":"Object_1",
			"primitives":[
				{
					"attributes":{
						"POSITION":34,
						"NORMAL":35
					},
					"indices":36,
					"material":2
				}
			]
		},
		{
			"name":"Object_2",
			"primitives":[
				{
					"attributes":{
						"POSITION":37,
						"NORMAL":38,
						"TEXCOORD_0":39
					},
					"indices":40,
					"material":4
				}
			]
		},
		{
			"name":"Object_3",
			"primitives":[
				{
					"attributes":{
						"POSITION":41,
						"NORMAL":42,
						"TEXCOORD_0":43
					},
					"indices":44,
					"material":5
				}
			]
		},
		{
			"name":"Object_4",
			"primitives":[
				{
					"attributes":{
						"POSITION":45,
						"NORMAL":46,
						"TEXCOORD_0":47
					},
					"indices":48,
					"material":6
				}
			]
		},
		{
			"name":"Object_5",
			"primitives":[
				{
					"attributes":{
						"POSITION":49,
						"NORMAL":50,
						"TEXCOORD_0":51
					},
					"indices":52,
					"material":2
				}
			]
		},
		{
			"name":"Object_6",
			"primitives":[
				{
					"attributes":{
						"POSITION":53,
						"NORMAL":54,
						"TEXCOORD_0":55
					},
					"indices":56,
					"material":2
				}
			]
		},
		{
			"name":"Object_7",
			"primitives":[
				{
					"attributes":{
						"POSITION":57,
						"NORMAL":58,
						"TEXCOORD_0":59
					},
					"indices":60,
					"material":2
				}
			]
		},
		{
			"name":"Text",
			"primitives":[
				{
					"attributes":{
						"POSITION":61,
						"NORMAL":62,
						"TEXCOORD_0":63
					},
					"indices":64
				}
			]
		}
	],
	"textures":[
		{
			"sampler":0,
			"source":0
		},
		{
			"sampler":0,
			"source":1
		},
		{
			"sampler":0,
			"source":2
		},
		{
			"sampler":0,
			"source":3
		},
		{
			"sampler":0,
			"source":4
		},
		{
			"sampler":0,
			"source":5
		},
		{
			"sampler":0,
			"source":6
		}
	],
	"images":[
		{
			"mimeType":"image/jpeg",
			"name":"concrete_layers_02_diff_4k",
			"uri":"concrete_layers_02_diff_4k.jpg"
		},
		{
			"mimeType":"image/jpeg",
			"name":"pebble_embedded_concrete_02_diff_4k",
			"uri":"pebble_embedded_concrete_02_diff_4k.jpg"
		},
		{
			"mimeType":"image/png",
			"name":"Floor_metallicRoughness",
			"uri":"Floor_metallicRoughness.png"
		},
		{
			"mimeType":"image/jpeg",
			"name":"Roof_baseColor",
			"uri":"Roof_baseColor.jpg"
		},
		{
			"mimeType":"image/png",
			"name":"Roof_metallicRoughness",
			"uri":"Roof_metallicRoughness.png"
		},
		{
			"mimeType":"image/jpeg",
			"name":"TankWall_baseColor",
			"uri":"TankWall_baseColor.jpg"
		},
		{
			"mimeType":"image/png",
			"name":"TankWall_metallicRoughness",
			"uri":"TankWall_metallicRoughness.png"
		}
	],
	"accessors":[
		{
			"bufferView":0,
			"componentType":5126,
			"count":4,
			"max":[
				1,
				0,
				1
			],
			"min":[
				-1,
				0,
				-1
			],
			"type":"VEC3"
		},
		{
			"bufferView":1,
			"componentType":5126,
			"count":4,
			"type":"VEC3"
		},
		{
			"bufferView":2,
			"componentType":5126,
			"count":4,
			"type":"VEC2"
		},
		{
			"bufferView":3,
			"componentType":5123,
			"count":6,
			"type":"SCALAR"
		},
		{
			"bufferView":4,
			"componentType":5126,
			"count":3897,
			"max":[
				4.523133754730225,
				0.21000003814697266,
				0.009793988429009914
			],
			"min":[
				0.030395135283470154,
				-0.21000003814697266,
				-0.5623100399971008
			],
			"type":"VEC3"
		},
		{
			"bufferView":5,
			"componentType":5126,
			"count":3897,
			"type":"VEC3"
		},
		{
			"bufferView":6,
			"componentType":5126,
			"count":3897,
			"type":"VEC2"
		},
		{
			"bufferView":7,
			"componentType":5123,
			"count":11400,
			"type":"SCALAR"
		},
		{
			"bufferView":8,
			"componentType":5126,
			"count":22803,
			"max":[
				7.020888805389404,
				7.048931121826172,
				14.999999046325684
			],
			"min":[
				-7.0224080085754395,
				-7.049779891967773,
				14
			],
			"type":"VEC3"
		},
		{
			"bufferView":9,
			"componentType":5126,
			"count":22803,
			"type":"VEC3"
		},
		{
			"bufferView":10,
			"componentType":5126,
			"count":22803,
			"type":"VEC2"
		},
		{
			"bufferView":11,
			"componentType":5123,
			"count":67200,
			"type":"SCALAR"
		},
		{
			"bufferView":12,
			"componentType":5126,
			"count":55316,
			"max":[
				7.972838878631592,
				7.973823070526123,
				14.715996742248535
			],
			"min":[
				-7.971080780029297,
				-7.973094940185547,
				0.5234860181808472
			],
			"type":"VEC3"
		},
		{
			"bufferView":13,
			"componentType":5126,
			"count":55316,
			"type":"VEC3"
		},
		{
			"bufferView":14,
			"componentType":5126,
			"count":55316,
			"type":"VEC2"
		},
		{
			"bufferView":15,
			"componentType":5123,
			"count":163146,
			"type":"SCALAR"
		},
		{
			"bufferView":16,
			"componentType":5126,
			"count":80085,
			"max":[
				6.104334831237793,
				8.009589195251465,
				14.556877136230469
			],
			"min":[
				-6.216034889221191,
				-8.010412216186523,
				8.253495216369629
			],
			"type":"VEC3"
		},
		{
			"bufferView":17,
			"componentType":5126,
			"count":80085,
			"type":"VEC3"
		},
		{
			"bufferView":18,
			"componentType":5126,
			"count":80085,
			"type":"VEC2"
		},
		{
			"bufferView":19,
			"componentType":5125,
			"count":126276,
			"type":"SCALAR"
		},
		{
			"bufferView":20,
			"componentType":5126,
			"count":74286,
			"max":[
				8.003202438354492,
				7.957402229309082,
				8.804420471191406
			],
			"min":[
				-8.004999160766602,
				-7.935410022735596,
				0
			],
			"type":"VEC3"
		},
		{
			"bufferView":21,
			"componentType":5126,
			"count":74286,
			"type":"VEC3"
		},
		{
			"bufferView":22,
			"componentType":5126,
			"count":74286,
			"type":"VEC2"
		},
		{
			"bufferView":23,
			"componentType":5125,
			"count":129138,
			"type":"SCALAR"
		},
		{
			"bufferView":24,
			"componentType":5126,
			"count":38512,
			"max":[
				4.978579998016357,
				7.90963888168335,
				8.554313659667969
			],
			"min":[
				-4.886937141418457,
				-7.880105018615723,
				5.252223014831543
			],
			"type":"VEC3"
		},
		{
			"bufferView":25,
			"componentType":5126,
			"count":38512,
			"type":"VEC3"
		},
		{
			"bufferView":26,
			"componentType":5126,
			"count":38512,
			"type":"VEC2"
		},
		{
			"bufferView":27,
			"componentType":5123,
			"count":64542,
			"type":"SCALAR"
		},
		{
			"bufferView":28,
			"componentType":5126,
			"count":11857,
			"max":[
				7.202703952789307,
				5.389366149902344,
				15.05000114440918
			],
			"min":[
				-7.209873199462891,
				-5.41239595413208,
				13.999999046325684
			],
			"type":"VEC3"
		},
		{
			"bufferView":29,
			"componentType":5126,
			"count":11857,
			"type":"VEC3"
		},
		{
			"bufferView":30,
			"componentType":5123,
			"count":18732,
			"type":"SCALAR"
		},
		{
			"bufferView":31,
			"componentType":5126,
			"count":5142,
			"max":[
				6.112782001495361,
				5.016732215881348,
				15.05000114440918
			],
			"min":[
				-7.189496994018555,
				-5.162421226501465,
				13.999999046325684
			],
			"type":"VEC3"
		},
		{
			"bufferView":32,
			"componentType":5126,
			"count":5142,
			"type":"VEC3"
		},
		{
			"bufferView":33,
			"componentType":5123,
			"count":8028,
			"type":"SCALAR"
		},
		{
			"bufferView":34,
			"componentType":5126,
			"count":9592,
			"max":[
				7.050000190734863,
				7.050000190734863,
				15.050000190734863
			],
			"min":[
				-7.050000190734863,
				-7.050000190734863,
				14.949999809265137
			],
			"type":"VEC3"
		},
		{
			"bufferView":35,
			"componentType":5126,
			"count":9592,
			"type":"VEC3"
		},
		{
			"bufferView":36,
			"componentType":5123,
			"count":10344,
			"type":"SCALAR"
		},
		{
			"bufferView":37,
			"componentType":5126,
			"count":1280,
			"max":[
				9.345117568969727,
				9.345113754272461,
				0.10000000149011612
			],
			"min":[
				-9.345112800598145,
				-9.34511661529541,
				-0.10000000149011612
			],
			"type":"VEC3"
		},
		{
			"bufferView":38,
			"componentType":5126,
			"count":1280,
			"type":"VEC3"
		},
		{
			"bufferView":39,
			"componentType":5126,
			"count":1280,
			"type":"VEC2"
		},
		{
			"bufferView":40,
			"componentType":5123,
			"count":2292,
			"type":"SCALAR"
		},
		{
			"bufferView":41,
			"componentType":5126,
			"count":386,
			"max":[
				6.915249824523926,
				6.915249824523926,
				13.684762001037598
			],
			"min":[
				-6.915249824523926,
				-6.915249824523926,
				13.315089225769043
			],
			"type":"VEC3"
		},
		{
			"bufferView":42,
			"componentType":5126,
			"count":386,
			"type":"VEC3"
		},
		{
			"bufferView":43,
			"componentType":5126,
			"count":386,
			"type":"VEC2"
		},
		{
			"bufferView":44,
			"componentType":5123,
			"count":756,
			"type":"SCALAR"
		},
		{
			"bufferView":45,
			"componentType":5126,
			"count":1268,
			"max":[
				7.243249893188477,
				7,
				14
			],
			"min":[
				-7.249687194824219,
				-7,
				0
			],
			"type":"VEC3"
		},
		{
			"bufferView":46,
			"componentType":5126,
			"count":1268,
			"type":"VEC3"
		},
		{
			"bufferView":47,
			"componentType":5126,
			"count":1268,
			"type":"VEC2"
		},
		{
			"bufferView":48,
			"componentType":5123,
			"count":4974,
			"type":"SCALAR"
		},
		{
			"bufferView":49,
			"componentType":5126,
			"count":4294,
			"max":[
				5.8973541259765625,
				6.617720127105713,
				14.43182373046875
			],
			"min":[
				-5.779178142547607,
				-6.313510894775391,
				12.917298316955566
			],
			"type":"VEC3"
		},
		{
			"bufferView":50,
			"componentType":5126,
			"count":4294,
			"type":"VEC3"
		},
		{
			"bufferView":51,
			"componentType":5126,
			"count":4294,
			"type":"VEC2"
		},
		{
			"bufferView":52,
			"componentType":5123,
			"count":8691,
			"type":"SCALAR"
		},
		{
			"bufferView":53,
			"componentType":5126,
			"count":22444,
			"max":[
				7.020888805389404,
				7.048931121826172,
				14.999999046325684
			],
			"min":[
				-7.0224080085754395,
				-7.049779891967773,
				14
			],
			"type":"VEC3"
		},
		{
			"bufferView":54,
			"componentType":5126,
			"count":22444,
			"type":"VEC3"
		},
		{
			"bufferView":55,
			"componentType":5126,
			"count":22444,
			"type":"VEC2"
		},
		{
			"bufferView":56,
			"componentType":5123,
			"count":60900,
			"type":"SCALAR"
		},
		{
			"bufferView":57,
			"componentType":5126,
			"count":45790,
			"max":[
				7.852859020233154,
				7.973823070526123,
				14.715996742248535
			],
			"min":[
				-7.820933818817139,
				-7.973094940185547,
				1.6489629745483398
			],
			"type":"VEC3"
		},
		{
			"bufferView":58,
			"componentType":5126,
			"count":45790,
			"type":"VEC3"
		},
		{
			"bufferView":59,
			"componentType":5126,
			"count":45790,
			"type":"VEC2"
		},
		{
			"bufferView":60,
			"componentType":5123,
			"count":131007,
			"type":"SCALAR"
		},
		{
			"bufferView":61,
			"componentType":5126,
			"count":608,
			"max":[
				4.2260003089904785,
				0,
				0.009000000543892384
			],
			"min":[
				0.017000000923871994,
				0,
				-0.6910000443458557
			],
			"type":"VEC3"
		},
		{
			"bufferView":62,
			"componentType":5126,
			"count":608,
			"type":"VEC3"
		},
		{
			"bufferView":63,
			"componentType":5126,
			"count":608,
			"type":"VEC2"
		},
		{
			"bufferView":64,
			"componentType":5123,
			"count":1788,
			"type":"SCALAR"
		}
	],
	"bufferViews":[
		{
			"buffer":0,
			"byteLength":48,
			"byteOffset":0,
			"target":34962
		},
		{
			"buffer":0,
			"byteLength":48,
			"byteOffset":48,
			"target":34962
		},
		{
			"buffer":0,
			"byteLength":32,
			"byteOffset":96,
			"target":34962
		},
		{
			"buffer":0,
			"byteLength":12,
			"byteOffset":128,
			"target":34963
		},
		{
			"buffer":0,
			"byteLength":46764,
			"byteOffset":140,
			"target":34962
		},
		{
			"buffer":0,
			"byteLength":46764,
			"byteOffset":46904,
			"target":34962
		},
		{
			"buffer":0,
			"byteLength":31176,
			"byteOffset":93668,
			"target":34962
		},
		{
			"buffer":0,
			"byteLength":22800,
			"byteOffset":124844,
			"target":34963
		},
		{
			"buffer":0,
			"byteLength":273636,
			"byteOffset":147644,
			"target":34962
		},
		{
			"buffer":0,
			"byteLength":273636,
			"byteOffset":421280,
			"target":34962
		},
		{
			"buffer":0,
			"byteLength":182424,
			"byteOffset":694916,
			"target":34962
		},
		{
			"buffer":0,
			"byteLength":134400,
			"byteOffset":877340,
			"target":34963
		},
		{
			"buffer":0,
			"byteLength":663792,
			"byteOffset":1011740,
			"target":34962
		},
		{
			"buffer":0,
			"byteLength":663792,
			"byteOffset":1675532,
			"target":34962
		},
		{
			"buffer":0,
			"byteLength":442528,
			"byteOffset":2339324,
			"target":34962
		},
		{
			"buffer":0,
			"byteLength":326292,
			"byteOffset":2781852,
			"target":34963
		},
		{
			"buffer":0,
			"byteLength":961020,
			"byteOffset":3108144,
			"target":34962
		},
		{
			"buffer":0,
			"byteLength":961020,
			"byteOffset":4069164,
			"target":34962
		},
		{
			"buffer":0,
			"byteLength":640680,
			"byteOffset":5030184,
			"target":34962
		},
		{
			"buffer":0,
			"byteLength":505104,
			"byteOffset":5670864,
			"target":34963
		},
		{
			"buffer":0,
			"byteLength":891432,
			"byteOffset":6175968,
			"target":34962
		},
		{
			"buffer":0,
			"byteLength":891432,
			"byteOffset":7067400,
			"target":34962
		},
		{
			"buffer":0,
			"byteLength":594288,
			"byteOffset":7958832,
			"target":34962
		},
		{
			"buffer":0,
			"byteLength":516552,
			"byteOffset":8553120,
			"target":34963
		},
		{
			"buffer":0,
			"byteLength":462144,
			"byteOffset":9069672,
			"target":34962
		},
		{
			"buffer":0,
			"byteLength":462144,
			"byteOffset":9531816,
			"target":34962
		},
		{
			"buffer":0,
			"byteLength":308096,
			"byteOffset":9993960,
			"target":34962
		},
		{
			"buffer":0,
			"byteLength":129084,
			"byteOffset":10302056,
			"target":34963
		},
		{
			"buffer":0,
			"byteLength":142284,
			"byteOffset":10431140,
			"target":34962
		},
		{
			"buffer":0,
			"byteLength":142284,
			"byteOffset":10573424,
			"target":34962
		},
		{
			"buffer":0,
			"byteLength":37464,
			"byteOffset":10715708,
			"target":34963
		},
		{
			"buffer":0,
			"byteLength":61704,
			"byteOffset":10753172,
			"target":34962
		},
		{
			"buffer":0,
			"byteLength":61704,
			"byteOffset":10814876,
			"target":34962
		},
		{
			"buffer":0,
			"byteLength":16056,
			"byteOffset":10876580,
			"target":34963
		},
		{
			"buffer":0,
			"byteLength":115104,
			"byteOffset":10892636,
			"target":34962
		},
		{
			"buffer":0,
			"byteLength":115104,
			"byteOffset":11007740,
			"target":34962
		},
		{
			"buffer":0,
			"byteLength":20688,
			"byteOffset":11122844,
			"target":34963
		},
		{
			"buffer":0,
			"byteLength":15360,
			"byteOffset":11143532,
			"target":34962
		},
		{
			"buffer":0,
			"byteLength":15360,
			"byteOffset":11158892,
			"target":34962
		},
		{
			"buffer":0,
			"byteLength":10240,
			"byteOffset":11174252,
			"target":34962
		},
		{
			"buffer":0,
			"byteLength":4584,
			"byteOffset":11184492,
			"target":34963
		},
		{
			"buffer":0,
			"byteLength":4632,
			"byteOffset":11189076,
			"target":34962
		},
		{
			"buffer":0,
			"byteLength":4632,
			"byteOffset":11193708,
			"target":34962
		},
		{
			"buffer":0,
			"byteLength":3088,
			"byteOffset":11198340,
			"target":34962
		},
		{
			"buffer":0,
			"byteLength":1512,
			"byteOffset":11201428,
			"target":34963
		},
		{
			"buffer":0,
			"byteLength":15216,
			"byteOffset":11202940,
			"target":34962
		},
		{
			"buffer":0,
			"byteLength":15216,
			"byteOffset":11218156,
			"target":34962
		},
		{
			"buffer":0,
			"byteLength":10144,
			"byteOffset":11233372,
			"target":34962
		},
		{
			"buffer":0,
			"byteLength":9948,
			"byteOffset":11243516,
			"target":34963
		},
		{
			"buffer":0,
			"byteLength":51528,
			"byteOffset":11253464,
			"target":34962
		},
		{
			"buffer":0,
			"byteLength":51528,
			"byteOffset":11304992,
			"target":34962
		},
		{
			"buffer":0,
			"byteLength":34352,
			"byteOffset":11356520,
			"target":34962
		},
		{
			"buffer":0,
			"byteLength":17382,
			"byteOffset":11390872,
			"target":34963
		},
		{
			"buffer":0,
			"byteLength":269328,
			"byteOffset":11408256,
			"target":34962
		},
		{
			"buffer":0,
			"byteLength":269328,
			"byteOffset":11677584,
			"target":34962
		},
		{
			"buffer":0,
			"byteLength":179552,
			"byteOffset":11946912,
			"target":34962
		},
		{
			"buffer":0,
			"byteLength":121800,
			"byteOffset":12126464,
			"target":34963
		},
		{
			"buffer":0,
			"byteLength":549480,
			"byteOffset":12248264,
			"target":34962
		},
		{
			"buffer":0,
			"byteLength":549480,
			"byteOffset":12797744,
			"target":34962
		},
		{
			"buffer":0,
			"byteLength":366320,
			"byteOffset":13347224,
			"target":34962
		},
		{
			"buffer":0,
			"byteLength":262014,
			"byteOffset":13713544,
			"target":34963
		},
		{
			"buffer":0,
			"byteLength":7296,
			"byteOffset":13975560,
			"target":34962
		},
		{
			"buffer":0,
			"byteLength":7296,
			"byteOffset":13982856,
			"target":34962
		},
		{
			"buffer":0,
			"byteLength":4864,
			"byteOffset":13990152,
			"target":34962
		},
		{
			"buffer":0,
			"byteLength":3576,
			"byteOffset":13995016,
			"target":34963
		}
	],
	"samplers":[
		{
			"magFilter":9729,
			"minFilter":9987
		}
	],
	"buffers":[
		{
			"byteLength":13998592,
			"uri":"Terminal%20Storage_v2.bin"
		}
	]
}
